<svg xmlns="http://www.w3.org/2000/svg"  viewBox="0 0 24 24" width="48px" height="48px"><path d="M 12 2 C 6.4860328 2 2 6.4860368 2 12 C 2 17.513963 6.4860328 22 12 22 C 17.513967 22 22 17.513963 22 12 C 22 6.4860368 17.513967 2 12 2 z M 12 3.5 C 16.703308 3.5 20.5 7.2966955 20.5 12 C 20.5 16.220894 17.438817 19.703329 13.412109 20.375 L 13.412109 15.037109 L 15.78125 15.037109 L 16.130859 12.3125 L 13.433594 12.3125 L 13.433594 10.572266 C 13.433594 9.7852656 13.65125 9.2558594 14.78125 9.2558594 L 16.208984 9.2558594 L 16.208984 6.8222656 C 15.510984 6.7492656 14.813234 6.71375 14.115234 6.71875 C 12.042234 6.71875 10.619141 7.9855937 10.619141 10.308594 L 10.619141 12.3125 L 8.2753906 12.3125 L 8.2753906 15.037109 L 10.619141 15.037109 L 10.619141 20.378906 C 6.5771137 19.720043 3.5 16.231736 3.5 12 C 3.5 7.2966955 7.2966924 3.5 12 3.5 z"/></svg>