<svg width="1440" height="1024" viewBox="0 0 1440 1024" fill="none" xmlns="http://www.w3.org/2000/svg">
<path d="M0 0H1440V1024H0V0Z" fill="#E8DDCB"/>
<path d="M0 113.371C54.9468 117.38 109.894 121.387 155.52 119.954C201.146 118.521 237.451 111.648 280.8 104.594C324.149 97.5404 374.543 90.3058 427.68 92.16C480.817 94.0142 536.699 104.958 585.36 109.714C634.021 114.471 675.462 113.039 722.16 113.371C768.858 113.704 820.812 115.8 870.48 116.297C920.148 116.795 967.529 115.692 1017.36 120.686C1067.19 125.68 1119.47 136.771 1164.96 132.389C1210.45 128.006 1249.13 108.149 1293.84 102.4C1338.55 96.651 1389.27 105.011 1468.8 113.371L1440 1024H0V113.371Z" fill="url(#paint0_linear_12_261)"/>
<path d="M0 227.474C52.4138 232.846 104.828 238.218 150.48 236.983C196.132 235.747 235.021 227.905 282.96 228.206C330.899 228.506 387.888 236.95 441.36 235.52C494.832 234.09 544.788 222.786 586.08 220.16C627.372 217.534 659.997 223.586 709.2 228.937C758.403 234.288 824.18 238.938 872.64 234.057C921.1 229.176 952.24 214.765 995.76 214.309C1039.28 213.852 1095.18 227.351 1147.68 231.863C1200.18 236.374 1249.29 231.898 1297.44 229.669C1345.59 227.439 1392.8 227.457 1468.8 227.474L1440 1024H0V227.474Z" fill="url(#paint1_linear_12_261)"/>
<path d="M0 340.846C42.179 351.067 84.3588 361.289 133.92 362.789C183.481 364.288 240.425 357.064 289.44 348.16C338.455 339.256 379.541 328.669 423.36 323.291C467.179 317.914 513.732 317.745 565.92 327.68C618.108 337.615 675.931 357.654 727.2 355.474C778.469 353.295 823.185 328.894 867.6 326.949C912.015 325.003 956.129 345.512 1006.56 351.086C1056.99 356.659 1113.74 347.297 1159.2 339.383C1204.66 331.469 1238.84 325.001 1283.76 325.486C1328.68 325.971 1384.34 333.409 1468.8 340.846L1440 1024H0V340.846Z" fill="url(#paint2_linear_12_261)"/>
<path d="M0 454.949C44.1943 448.88 88.3894 442.811 141.12 449.829C193.851 456.847 255.118 476.951 300.24 473.966C345.362 470.981 374.338 444.906 418.32 443.977C462.302 443.048 521.291 467.264 576.72 471.04C632.149 474.816 684.019 458.154 730.8 449.829C777.581 441.503 819.271 441.514 861.12 438.126C902.969 434.738 944.976 427.95 997.92 432.274C1050.86 436.599 1114.75 452.034 1162.8 460.8C1210.85 469.566 1243.08 471.664 1286.64 469.577C1330.2 467.49 1385.1 461.22 1468.8 454.949L1440 1024H0V454.949Z" fill="url(#paint3_linear_12_261)"/>
<path d="M0 568.32C42.449 578.921 84.8981 589.523 131.76 590.263C178.622 591.003 229.897 581.881 280.8 580.754C331.703 579.628 382.232 586.496 432 585.143C481.768 583.79 530.775 574.215 581.76 566.857C632.745 559.5 685.708 554.36 733.68 551.497C781.652 548.634 824.635 548.049 873.36 555.886C922.085 563.722 976.554 579.982 1020.24 588.8C1063.93 597.618 1096.83 598.995 1140.48 588.069C1184.13 577.143 1238.53 553.913 1290.24 548.571C1341.95 543.23 1390.98 555.775 1468.8 568.32L1440 1024H0V568.32Z" fill="url(#paint4_linear_12_261)"/>
<path d="M0 682.423C54.5803 688.275 109.161 694.128 154.08 691.2C198.999 688.272 234.256 676.564 279.36 670.72C324.464 664.876 379.416 664.896 431.28 667.063C483.145 669.229 531.922 673.542 583.2 681.691C634.478 689.841 688.257 701.828 731.52 701.44C774.783 701.052 807.53 688.287 856.8 686.811C906.07 685.335 971.86 695.148 1020.96 700.709C1070.06 706.27 1102.47 707.579 1145.52 701.44C1188.57 695.301 1242.27 681.713 1293.12 677.303C1343.97 672.892 1391.99 677.658 1468.8 682.423L1440 1024H0V682.423Z" fill="url(#paint5_linear_12_261)"/>
<path d="M0 795.794C53.2886 794.172 106.577 792.549 154.08 792.137C201.583 791.725 243.3 792.523 288.72 796.526C334.14 800.528 383.265 807.734 434.88 810.423C486.495 813.112 540.602 811.284 586.8 808.229C632.998 805.173 671.287 800.89 718.56 792.137C765.833 783.384 822.09 770.162 872.64 778.24C923.19 786.318 968.032 815.695 1012.32 817.006C1056.61 818.316 1100.34 791.561 1146.96 779.703C1193.58 767.844 1243.08 770.881 1292.4 776.046C1341.72 781.21 1390.86 788.502 1468.8 795.794L1440 1024H0V795.794Z" fill="url(#paint6_linear_12_261)"/>
<path d="M0 909.897C51.372 920.61 102.744 931.322 150.48 927.451C198.216 923.581 242.318 905.126 288.72 904.777C335.122 904.428 383.825 922.185 429.84 923.794C475.855 925.403 519.185 910.865 570.24 905.508C621.295 900.151 680.078 903.975 727.92 909.166C775.762 914.356 812.662 920.912 855.36 923.794C898.058 926.677 946.555 925.886 995.76 921.6C1044.97 917.314 1094.88 909.531 1148.4 912.823C1201.92 916.114 1259.04 930.482 1308.24 931.84C1357.44 933.198 1398.72 921.547 1468.8 909.897L1440 1024H0V909.897Z" fill="url(#paint7_linear_12_261)"/>
<defs>
<linearGradient id="paint0_linear_12_261" x1="-90.4302" y1="-100.919" x2="-90.4302" y2="1538.25" gradientUnits="userSpaceOnUse">
<stop offset="0.05" stop-color="#DBC8A6"/>
<stop offset="0.95" stop-color="#E4D5BC"/>
</linearGradient>
<linearGradient id="paint1_linear_12_261" x1="-210.949" y1="-271.014" x2="-210.949" y2="1616.01" gradientUnits="userSpaceOnUse">
<stop offset="0.05" stop-color="#CDB380"/>
<stop offset="0.95" stop-color="#D9C69F"/>
</linearGradient>
<linearGradient id="paint2_linear_12_261" x1="-314.639" y1="-464.678" x2="-314.639" y2="1704.54" gradientUnits="userSpaceOnUse">
<stop offset="0.05" stop-color="#688C72"/>
<stop offset="0.95" stop-color="#8DA895"/>
</linearGradient>
<linearGradient id="paint3_linear_12_261" x1="-424.145" y1="-743.891" x2="-424.145" y2="1832.18" gradientUnits="userSpaceOnUse">
<stop offset="0.05" stop-color="#036564"/>
<stop offset="0.95" stop-color="#428B8A"/>
</linearGradient>
<linearGradient id="paint4_linear_12_261" x1="-538.756" y1="-1175.69" x2="-538.756" y2="2029.57" gradientUnits="userSpaceOnUse">
<stop offset="0.05" stop-color="#034E57"/>
<stop offset="0.95" stop-color="#427A81"/>
</linearGradient>
<linearGradient id="paint5_linear_12_261" x1="-655.325" y1="-1902.75" x2="-655.325" y2="2361.94" gradientUnits="userSpaceOnUse">
<stop offset="0.05" stop-color="#033649"/>
<stop offset="0.95" stop-color="#426876"/>
</linearGradient>
<linearGradient id="paint6_linear_12_261" x1="-759.434" y1="-3128.59" x2="-759.434" y2="2922.33" gradientUnits="userSpaceOnUse">
<stop offset="0.05" stop-color="#03263F"/>
<stop offset="0.95" stop-color="#425C6F"/>
</linearGradient>
<linearGradient id="paint7_linear_12_261" x1="-888.813" y1="-3.70943e-05" x2="-888.813" y2="1492.11" gradientUnits="userSpaceOnUse">
<stop offset="0.05" stop-color="#031634"/>
<stop offset="0.95" stop-color="#425066"/>
</linearGradient>
</defs>
</svg>
